<?xml version="1.0" encoding="UTF-8"?>
<!DOCTYPE svg PUBLIC "-//W3C//DTD SVG 1.1//EN" "http://www.w3.org/Graphics/SVG/1.1/DTD/svg11.dtd">
<svg xmlns="http://www.w3.org/2000/svg" version="1.1" width="931px" height="652px" style="shape-rendering:geometricPrecision; text-rendering:geometricPrecision; image-rendering:optimizeQuality; fill-rule:evenodd; clip-rule:evenodd" xmlns:xlink="http://www.w3.org/1999/xlink">
<g><path style="opacity:0.015" fill="#faf7fc" d="M 406.5,144.5 C 405.209,144.737 404.209,144.404 403.5,143.5C 399.837,142.734 396.171,141.9 392.5,141C 355.833,140.333 319.167,140.333 282.5,141C 278.011,141.705 273.678,142.872 269.5,144.5C 269.5,144.167 269.5,143.833 269.5,143.5C 271.132,140.927 273.298,140.261 276,141.5C 277.324,140.12 278.657,139.786 280,140.5C 299.116,139.173 318.449,138.506 338,138.5C 357.167,138.667 376.333,138.833 395.5,139C 398.04,141.007 400.707,141.673 403.5,141C 405.426,141.422 406.426,142.589 406.5,144.5 Z"/></g>
<g><path style="opacity:0.015" fill="#fbf9fd" d="M 673.5,141.5 C 619.847,140.364 566.18,140.197 512.5,141C 508.277,141.554 504.277,142.721 500.5,144.5C 499.402,143.603 499.402,142.77 500.5,142C 502.298,140.495 504.132,140.328 506,141.5C 507.079,139.606 508.413,139.273 510,140.5C 536.452,139.171 563.119,138.504 590,138.5C 616.5,138.667 643,138.833 669.5,139C 671.066,139.608 672.4,140.442 673.5,141.5 Z"/></g>
<g><path style="opacity:0.006" fill="#f1eaf9" d="M 681.5,144.5 C 678.603,143.871 675.936,142.871 673.5,141.5C 675.225,140.722 676.891,140.389 678.5,140.5C 680.167,141.333 681.833,142.167 683.5,143C 682.584,143.278 681.918,143.778 681.5,144.5 Z"/></g>
<g><path style="opacity:1" fill="#712ebd" d="M 403.5,143.5 C 404.209,144.404 405.209,144.737 406.5,144.5C 408.118,146.316 410.118,147.649 412.5,148.5C 413.436,149.974 414.77,150.974 416.5,151.5C 417.833,153.5 419.5,155.167 421.5,156.5C 421.5,156.833 421.5,157.167 421.5,157.5C 422.846,159.537 424.18,161.537 425.5,163.5C 426.514,165.574 427.514,167.574 428.5,169.5C 428.216,171.415 428.549,173.081 429.5,174.5C 429.5,174.833 429.5,175.167 429.5,175.5C 429.5,180.167 429.5,184.833 429.5,189.5C 429.5,189.833 429.5,190.167 429.5,190.5C 428.026,194.026 426.693,197.693 425.5,201.5C 423.917,203.663 422.584,205.996 421.5,208.5C 421.5,208.833 421.5,209.167 421.5,209.5C 421.167,209.5 420.833,209.5 420.5,209.5C 418.5,210.833 416.833,212.5 415.5,214.5C 415.5,215.167 415.167,215.5 414.5,215.5C 412.205,216.475 410.205,217.808 408.5,219.5C 405.089,220.88 401.756,222.214 398.5,223.5C 397.432,224.434 396.099,224.768 394.5,224.5C 356.5,224.5 318.5,224.5 280.5,224.5C 280.167,224.5 279.833,224.5 279.5,224.5C 275.739,222.462 271.739,220.796 267.5,219.5C 265.537,218.18 263.537,216.846 261.5,215.5C 256.771,211.102 252.771,206.102 249.5,200.5C 245.914,189.274 245.58,177.941 248.5,166.5C 250.56,163.76 252.226,160.76 253.5,157.5C 258.278,152.379 263.612,148.046 269.5,144.5C 273.678,142.872 278.011,141.705 282.5,141C 319.167,140.333 355.833,140.333 392.5,141C 396.171,141.9 399.837,142.734 403.5,143.5 Z"/></g>
<g><path style="opacity:1" fill="#712dbd" d="M 673.5,141.5 C 675.936,142.871 678.603,143.871 681.5,144.5C 681.833,144.5 682.167,144.5 682.5,144.5C 684.509,146.065 686.843,147.065 689.5,147.5C 690.167,147.833 690.833,148.167 691.5,148.5C 693.296,150.9 695.63,152.567 698.5,153.5C 701.167,156.833 704.167,159.833 707.5,162.5C 708.122,164.122 709.122,165.455 710.5,166.5C 710.5,167.167 710.833,167.5 711.5,167.5C 711.833,168.167 712.167,168.833 712.5,169.5C 713.596,172.032 714.929,174.365 716.5,176.5C 716.5,176.833 716.5,177.167 716.5,177.5C 716.989,178.995 717.655,180.329 718.5,181.5C 718.171,184.228 718.837,186.562 720.5,188.5C 720.5,189.5 720.5,190.5 720.5,191.5C 720.5,323.5 720.5,455.5 720.5,587.5C 720.5,588.167 720.5,588.833 720.5,589.5C 719.232,591.905 718.565,594.572 718.5,597.5C 717.326,598.514 716.66,599.847 716.5,601.5C 714.595,604.304 712.929,607.304 711.5,610.5C 711.5,610.833 711.5,611.167 711.5,611.5C 710.026,612.436 709.026,613.77 708.5,615.5C 708.5,616.167 708.167,616.5 707.5,616.5C 705.167,619.5 702.5,622.167 699.5,624.5C 697.611,625.604 695.945,626.937 694.5,628.5C 694.5,628.833 694.5,629.167 694.5,629.5C 694.167,629.5 693.833,629.5 693.5,629.5C 691.181,629.992 689.181,630.992 687.5,632.5C 686.508,632.328 685.842,632.662 685.5,633.5C 681.216,634.261 677.216,635.595 673.5,637.5C 557.862,638.494 442.195,638.827 326.5,638.5C 326.167,638.5 325.833,638.5 325.5,638.5C 322.098,636.722 318.431,635.389 314.5,634.5C 314.027,633.094 313.027,632.427 311.5,632.5C 309.858,631.197 308.191,629.864 306.5,628.5C 306.167,628.5 305.833,628.5 305.5,628.5C 304.974,626.77 303.974,625.436 302.5,624.5C 301.833,624.5 301.5,624.167 301.5,623.5C 300.396,621.611 299.063,619.945 297.5,618.5C 296.662,618.158 296.328,617.492 296.5,616.5C 296.02,613.557 295.02,610.89 293.5,608.5C 292.662,608.158 292.328,607.492 292.5,606.5C 292.365,599.138 292.698,591.804 293.5,584.5C 293.5,584.167 293.5,583.833 293.5,583.5C 294.404,582.791 294.737,581.791 294.5,580.5C 295.89,579.101 296.89,577.434 297.5,575.5C 299.192,573.795 300.525,571.795 301.5,569.5C 301.5,569.167 301.5,568.833 301.5,568.5C 301.833,568.5 302.167,568.5 302.5,568.5C 304.19,568.144 305.19,567.144 305.5,565.5C 305.5,564.833 305.833,564.5 306.5,564.5C 308.23,563.974 309.564,562.974 310.5,561.5C 312.368,560.737 314.035,559.737 315.5,558.5C 316.492,558.672 317.158,558.338 317.5,557.5C 317.833,557.5 318.167,557.5 318.5,557.5C 319.995,557.011 321.329,556.345 322.5,555.5C 402.822,554.69 483.155,554.19 563.5,554C 564.416,553.722 565.082,553.222 565.5,552.5C 568.089,552.539 570.089,551.539 571.5,549.5C 573.404,549.262 574.738,548.262 575.5,546.5C 576.906,546.027 577.573,545.027 577.5,543.5C 578.906,543.027 579.573,542.027 579.5,540.5C 580.338,540.158 580.672,539.492 580.5,538.5C 582.867,535.32 583.867,531.653 583.5,527.5C 583.842,522.502 582.508,518.169 579.5,514.5C 577.986,510.469 575.319,507.469 571.5,505.5C 568.4,502.79 564.733,501.457 560.5,501.5C 559.833,501.5 559.167,501.5 558.5,501.5C 518.002,500.667 477.335,500.167 436.5,500C 428.354,499.087 421.02,496.253 414.5,491.5C 413.5,489.833 412.167,488.5 410.5,487.5C 410.167,486.5 409.5,485.833 408.5,485.5C 406.163,481.492 403.83,477.492 401.5,473.5C 401.326,471.139 400.993,468.806 400.5,466.5C 400.5,461.167 400.5,455.833 400.5,450.5C 400.993,448.194 401.326,445.861 401.5,443.5C 402.674,442.486 403.34,441.153 403.5,439.5C 404.82,437.537 406.154,435.537 407.5,433.5C 410.167,430.167 413.167,427.167 416.5,424.5C 418.23,423.974 419.564,422.974 420.5,421.5C 421.167,421.167 421.833,420.833 422.5,420.5C 425.486,420.097 428.152,419.097 430.5,417.5C 431.167,417.5 431.833,417.5 432.5,417.5C 433.167,417.5 433.833,417.5 434.5,417.5C 454.836,417.667 475.169,417.5 495.5,417C 497.382,416.802 499.048,416.302 500.5,415.5C 501.791,415.737 502.791,415.404 503.5,414.5C 503.833,414.5 504.167,414.5 504.5,414.5C 506.153,414.34 507.486,413.674 508.5,412.5C 513.478,410.856 516.811,407.522 518.5,402.5C 519.404,401.791 519.737,400.791 519.5,399.5C 520.222,399.082 520.722,398.416 521,397.5C 521.498,394.518 521.665,391.518 521.5,388.5C 521.5,388.167 521.5,387.833 521.5,387.5C 521.931,382.793 520.598,378.793 517.5,375.5C 516.557,372.891 514.89,370.891 512.5,369.5C 512.167,369.5 511.833,369.5 511.5,369.5C 511.5,369.167 511.5,368.833 511.5,368.5C 511.158,367.662 510.492,367.328 509.5,367.5C 508.101,366.11 506.434,365.11 504.5,364.5C 504.167,364.5 503.833,364.5 503.5,364.5C 503.158,363.662 502.492,363.328 501.5,363.5C 413.001,362.667 324.334,362.167 235.5,362C 232.883,361.178 230.216,360.678 227.5,360.5C 226.833,360.5 226.167,360.5 225.5,360.5C 225.5,359.833 225.167,359.5 224.5,359.5C 223.713,357.896 222.38,357.229 220.5,357.5C 220.167,356.5 219.5,355.833 218.5,355.5C 218.167,355.5 217.833,355.5 217.5,355.5C 214.281,352.736 211.281,349.736 208.5,346.5C 207.974,344.77 206.974,343.436 205.5,342.5C 200.568,331.302 199.235,319.635 201.5,307.5C 202.537,306.07 203.204,304.403 203.5,302.5C 204.338,302.158 204.672,301.492 204.5,300.5C 205.338,300.158 205.672,299.492 205.5,298.5C 207.063,297.055 208.396,295.389 209.5,293.5C 211.5,292.167 213.167,290.5 214.5,288.5C 215.872,287.488 217.205,286.488 218.5,285.5C 221.669,284.083 224.669,282.417 227.5,280.5C 227.833,280.5 228.167,280.5 228.5,280.5C 231.067,280.279 233.401,279.612 235.5,278.5C 352.167,278.667 468.834,278.5 585.5,278C 586.737,277.768 587.737,277.268 588.5,276.5C 589.791,276.737 590.791,276.404 591.5,275.5C 591.842,274.662 592.508,274.328 593.5,274.5C 595.23,273.974 596.564,272.974 597.5,271.5C 600.737,269.37 602.737,266.37 603.5,262.5C 604.931,261.22 605.598,259.553 605.5,257.5C 605.5,257.167 605.5,256.833 605.5,256.5C 606.715,252.699 606.715,249.033 605.5,245.5C 605.308,241.898 603.974,238.898 601.5,236.5C 601.167,235.5 600.5,234.833 599.5,234.5C 599.5,232.5 598.5,231.5 596.5,231.5C 595.198,229.178 593.198,227.845 590.5,227.5C 588.723,226.4 586.723,225.566 584.5,225C 560.836,224.5 537.169,224.333 513.5,224.5C 512.833,224.5 512.167,224.5 511.5,224.5C 509.379,224.675 507.379,224.341 505.5,223.5C 503.351,222.264 501.018,221.264 498.5,220.5C 498.158,219.662 497.492,219.328 496.5,219.5C 495.055,217.937 493.389,216.604 491.5,215.5C 488.471,212.141 485.471,208.808 482.5,205.5C 481.345,202.672 480.011,200.005 478.5,197.5C 476.251,188.595 475.918,179.595 477.5,170.5C 478.404,169.791 478.737,168.791 478.5,167.5C 478.5,167.167 478.5,166.833 478.5,166.5C 480.083,164.337 481.416,162.004 482.5,159.5C 484.156,157.54 485.823,155.54 487.5,153.5C 489.858,151.471 492.192,149.471 494.5,147.5C 496.368,146.737 498.035,145.737 499.5,144.5C 499.833,144.5 500.167,144.5 500.5,144.5C 504.277,142.721 508.277,141.554 512.5,141C 566.18,140.197 619.847,140.364 673.5,141.5 Z"/></g>
<g><path style="opacity:0.004" fill="#fefefe" d="M 269.5,143.5 C 268.833,142.167 268.833,142.167 269.5,143.5 Z"/></g>
<g><path style="opacity:0.004" fill="#efe8f8" d="M 412.5,148.5 C 410.118,147.649 408.118,146.316 406.5,144.5C 407.789,143.499 409.122,143.666 410.5,145C 411.328,145.915 412.328,146.581 413.5,147C 412.944,147.383 412.611,147.883 412.5,148.5 Z"/></g>
<g><path style="opacity:0.005" fill="#f4effa" d="M 689.5,147.5 C 686.843,147.065 684.509,146.065 682.5,144.5C 684.45,143.502 686.45,143.668 688.5,145C 689.252,145.671 689.586,146.504 689.5,147.5 Z"/></g>
<g><path style="opacity:0.067" fill="#efe7f7" d="M 499.5,144.5 C 498.035,145.737 496.368,146.737 494.5,147.5C 495.27,144.623 496.937,143.623 499.5,144.5 Z"/></g>
<g><path style="opacity:0.007" fill="#f0e9f8" d="M 269.5,144.5 C 263.612,148.046 258.278,152.379 253.5,157.5C 254.989,153.498 257.489,150.164 261,147.5C 261.333,147.833 261.667,148.167 262,148.5C 263.87,145.318 266.37,143.985 269.5,144.5 Z"/></g>
<g><path style="opacity:0.009" fill="#f1eaf8" d="M 494.5,147.5 C 492.192,149.471 489.858,151.471 487.5,153.5C 487.5,152.833 487.167,152.5 486.5,152.5C 488.655,148.436 491.321,146.77 494.5,147.5 Z"/></g>
<g><path style="opacity:0.007" fill="#f2ebf9" d="M 698.5,153.5 C 695.63,152.567 693.296,150.9 691.5,148.5C 691.56,147.957 691.893,147.624 692.5,147.5C 694.493,149.499 696.827,150.999 699.5,152C 698.944,152.383 698.611,152.883 698.5,153.5 Z"/></g>
<g><path style="opacity:0.11" fill="#ede5f7" d="M 412.5,148.5 C 414.973,148.088 416.306,149.088 416.5,151.5C 414.77,150.974 413.436,149.974 412.5,148.5 Z"/></g>
<g><path style="opacity:0.004" fill="#f7f3fb" d="M 416.5,151.5 C 418.867,152.164 420.867,153.497 422.5,155.5C 422.376,156.107 422.043,156.44 421.5,156.5C 419.5,155.167 417.833,153.5 416.5,151.5 Z"/></g>
<g><path style="opacity:0.007" fill="#f2ecf9" d="M 698.5,153.5 C 702.673,154.995 706.006,157.662 708.5,161.5C 707.833,161.5 707.5,161.833 707.5,162.5C 704.167,159.833 701.167,156.833 698.5,153.5 Z"/></g>
<g><path style="opacity:0.18" fill="#efe7f7" d="M 486.5,152.5 C 487.167,152.5 487.5,152.833 487.5,153.5C 485.823,155.54 484.156,157.54 482.5,159.5C 482.389,158.883 482.056,158.383 481.5,158C 483.402,156.27 485.069,154.437 486.5,152.5 Z"/></g>
<g><path style="opacity:0.007" fill="#f3edf9" d="M 421.5,157.5 C 423.824,157.662 425.491,158.828 426.5,161C 425.748,161.671 425.414,162.504 425.5,163.5C 424.18,161.537 422.846,159.537 421.5,157.5 Z"/></g>
<g><path style="opacity:0.004" fill="#fdfefe" d="M 708.5,161.5 C 709.833,162.167 709.833,162.167 708.5,161.5 Z"/></g>
<g><path style="opacity:0.051" fill="#f1e9f8" d="M 253.5,157.5 C 252.226,160.76 250.56,163.76 248.5,166.5C 247.593,163.79 248.593,161.623 251.5,160C 250.588,158.375 251.255,157.541 253.5,157.5 Z"/></g>
<g><path style="opacity:0.005" fill="#f9f6fc" d="M 425.5,163.5 C 426.496,163.414 427.329,163.748 428,164.5C 428.494,166.134 428.66,167.801 428.5,169.5C 427.514,167.574 426.514,165.574 425.5,163.5 Z"/></g>
<g><path style="opacity:0.004" fill="#eadff5" d="M 707.5,162.5 C 707.833,162.5 708.167,162.5 708.5,162.5C 709.694,163.272 710.694,164.272 711.5,165.5C 710.833,165.5 710.5,165.833 710.5,166.5C 709.122,165.455 708.122,164.122 707.5,162.5 Z"/></g>
<g><path style="opacity:0.027" fill="#f3eef9" d="M 482.5,159.5 C 481.416,162.004 480.083,164.337 478.5,166.5C 478.584,163.318 479.917,160.985 482.5,159.5 Z"/></g>
<g><path style="opacity:0.006" fill="#faf7fc" d="M 711.5,165.5 C 712.833,166.167 712.833,166.833 711.5,167.5C 710.833,167.5 710.5,167.167 710.5,166.5C 711.167,166.5 711.5,166.167 711.5,165.5 Z"/></g>
<g><path style="opacity:0.004" fill="#f2eaf8" d="M 478.5,167.5 C 478.737,168.791 478.404,169.791 477.5,170.5C 477.082,169.778 476.416,169.278 475.5,169C 476.05,166.842 477.05,166.342 478.5,167.5 Z"/></g>
<g><path style="opacity:0.006" fill="#f8f5fb" d="M 717.5,176.5 C 717.167,176.5 716.833,176.5 716.5,176.5C 714.929,174.365 713.596,172.032 712.5,169.5C 713.117,169.389 713.617,169.056 714,168.5C 715.083,171.267 716.25,173.933 717.5,176.5 Z"/></g>
<g><path style="opacity:0.008" fill="#e7dbf4" d="M 248.5,166.5 C 245.58,177.941 245.914,189.274 249.5,200.5C 248.833,200.5 248.5,200.833 248.5,201.5C 247.798,198.174 246.464,194.674 244.5,191C 245.809,185.507 245.809,180.007 244.5,174.5C 244.9,171.259 246.233,168.593 248.5,166.5 Z"/></g>
<g><path style="opacity:0.039" fill="#f1eaf8" d="M 428.5,169.5 C 430.538,170.856 430.872,172.523 429.5,174.5C 428.549,173.081 428.216,171.415 428.5,169.5 Z"/></g>
<g><path style="opacity:0.008" fill="#f0e8f8" d="M 477.5,170.5 C 475.918,179.595 476.251,188.595 478.5,197.5C 478.167,197.5 477.833,197.5 477.5,197.5C 477.082,196.778 476.416,196.278 475.5,196C 475.957,195.586 476.291,195.086 476.5,194.5C 472.807,186.93 472.807,179.43 476.5,172C 475.288,170.893 475.621,170.393 477.5,170.5 Z"/></g>
<g><path style="opacity:0.004" fill="#f9f5fc" d="M 717.5,176.5 C 719.784,177.677 720.118,179.344 718.5,181.5C 717.655,180.329 716.989,178.995 716.5,177.5C 717.167,177.5 717.5,177.167 717.5,176.5 Z"/></g>
<g><path style="opacity:0.004" fill="#fdfefe" d="M 243.5,177.5 C 244.643,180.976 244.81,184.642 244,188.5C 243.501,184.848 243.335,181.182 243.5,177.5 Z"/></g>
<g><path style="opacity:0.239" fill="#f3edf9" d="M 429.5,189.5 C 429.5,184.833 429.5,180.167 429.5,175.5C 430.222,175.082 430.722,174.416 431,173.5C 431.395,175.179 431.228,176.845 430.5,178.5C 430.737,181.063 431.237,181.063 432,178.5C 432.696,182.905 432.363,187.239 431,191.5C 430.722,190.584 430.222,189.918 429.5,189.5 Z"/></g>
<g><path style="opacity:0.008" fill="#f1eaf8" d="M 718.5,181.5 C 720.245,183.033 721.245,185.033 721.5,187.5C 720.833,187.5 720.5,187.833 720.5,188.5C 718.837,186.562 718.171,184.228 718.5,181.5 Z"/></g>
<g><path style="opacity:0.004" fill="#fefefe" d="M 721.5,187.5 C 722.833,188.833 722.833,190.167 721.5,191.5C 721.5,190.167 721.5,188.833 721.5,187.5 Z"/></g>
<g><path style="opacity:0.005" fill="#efe7f7" d="M 429.5,190.5 C 429.539,191.583 429.873,192.583 430.5,193.5C 429.77,196.028 428.77,198.695 427.5,201.5C 427.167,200.167 426.833,200.167 426.5,201.5C 426.167,201.5 425.833,201.5 425.5,201.5C 426.693,197.693 428.026,194.026 429.5,190.5 Z"/></g>
<g><path style="opacity:0.008" fill="#fdfefd" d="M 477.5,197.5 C 476.833,198.167 476.833,198.167 477.5,197.5 Z"/></g>
<g><path style="opacity:0.004" fill="#ede4f6" d="M 478.5,197.5 C 480.011,200.005 481.345,202.672 482.5,205.5C 481.883,205.611 481.383,205.944 481,206.5C 479.092,203.794 478.259,200.794 478.5,197.5 Z"/></g>
<g><path style="opacity:0.004" fill="#fdfefe" d="M 426.5,201.5 C 426.833,201.5 427.167,201.5 427.5,201.5C 427.315,202.17 426.981,202.17 426.5,201.5 Z"/></g>
<g><path style="opacity:0.086" fill="#f0e9f8" d="M 249.5,200.5 C 252.771,206.102 256.771,211.102 261.5,215.5C 260.883,215.611 260.383,215.944 260,216.5C 255.152,212.168 251.319,207.168 248.5,201.5C 249.167,201.5 249.5,201.167 249.5,200.5 Z"/></g>
<g><path style="opacity:0.02" fill="#ebe1f5" d="M 425.5,201.5 C 425.851,204.812 424.518,207.145 421.5,208.5C 422.584,205.996 423.917,203.663 425.5,201.5 Z"/></g>
<g><path style="opacity:0.004" fill="#fdfefe" d="M 421.5,209.5 C 422.833,210.167 422.833,210.167 421.5,209.5 Z"/></g>
<g><path style="opacity:0.011" fill="#ece2f6" d="M 482.5,205.5 C 485.471,208.808 488.471,212.141 491.5,215.5C 489.516,215.617 487.85,214.95 486.5,213.5C 484.43,211.157 483.097,208.491 482.5,205.5 Z"/></g>
<g><path style="opacity:0.008" fill="#f2ebf8" d="M 420.5,209.5 C 420.5,210.167 420.833,210.5 421.5,210.5C 420.017,212.094 418.517,213.76 417,215.5C 416.617,214.944 416.117,214.611 415.5,214.5C 416.833,212.5 418.5,210.833 420.5,209.5 Z"/></g>
<g><path style="opacity:0.014" fill="#f3edf9" d="M 414.5,215.5 C 413.578,217.816 411.911,219.483 409.5,220.5C 409.5,219.833 409.167,219.5 408.5,219.5C 410.205,217.808 412.205,216.475 414.5,215.5 Z"/></g>
<g><path style="opacity:0.005" fill="#f0e9f8" d="M 261.5,215.5 C 263.537,216.846 265.537,218.18 267.5,219.5C 266.833,219.5 266.5,219.833 266.5,220.5C 265.069,219.918 263.736,219.085 262.5,218C 261.748,217.329 261.414,216.496 261.5,215.5 Z"/></g>
<g><path style="opacity:0.008" fill="#f8f5fc" d="M 491.5,215.5 C 493.389,216.604 495.055,217.937 496.5,219.5C 495.833,219.5 495.5,219.833 495.5,220.5C 493.413,219.415 492.08,217.749 491.5,215.5 Z"/></g>
<g><path style="opacity:0.008" fill="#f8f6fc" d="M 496.5,219.5 C 497.492,219.328 498.158,219.662 498.5,220.5C 497.348,221.625 496.348,221.625 495.5,220.5C 496.167,220.5 496.5,220.167 496.5,219.5 Z"/></g>
<g><path style="opacity:0.004" fill="#fdfefe" d="M 266.5,220.5 C 266.833,220.5 267.167,220.5 267.5,220.5C 267.315,221.17 266.981,221.17 266.5,220.5 Z"/></g>
<g><path style="opacity:0.004" fill="#fdfefe" d="M 408.5,220.5 C 408.833,220.5 409.167,220.5 409.5,220.5C 409.315,221.17 408.981,221.17 408.5,220.5 Z"/></g>
<g><path style="opacity:0.008" fill="#e7daf3" d="M 267.5,220.5 C 267.5,220.167 267.5,219.833 267.5,219.5C 271.739,220.796 275.739,222.462 279.5,224.5C 278.5,224.5 277.5,224.5 276.5,224.5C 275.833,223.167 275.167,223.167 274.5,224.5C 271.705,223.937 269.372,222.604 267.5,220.5 Z"/></g>
<g><path style="opacity:0.008" fill="#f0e8f8" d="M 408.5,219.5 C 408.5,219.833 408.5,220.167 408.5,220.5C 405.795,223.864 402.462,224.864 398.5,223.5C 401.756,222.214 405.089,220.88 408.5,219.5 Z"/></g>
<g><path style="opacity:0.008" fill="#f8f4fb" d="M 498.5,220.5 C 501.018,221.264 503.351,222.264 505.5,223.5C 502.687,224.106 500.354,223.106 498.5,220.5 Z"/></g>
<g><path style="opacity:0.004" fill="#fdfefe" d="M 274.5,224.5 C 275.167,224.5 275.833,224.5 276.5,224.5C 275.833,225.833 275.167,225.833 274.5,224.5 Z"/></g>
<g><path style="opacity:0.004" fill="#fdfefe" d="M 399.5,224.5 C 400.833,225.167 400.833,225.167 399.5,224.5 Z"/></g>
<g><path style="opacity:0.337" fill="#d3beea" d="M 513.5,224.5 C 537.169,224.333 560.836,224.5 584.5,225C 586.723,225.566 588.723,226.4 590.5,227.5C 587.4,228.691 584.733,228.024 582.5,225.5C 559.327,225.831 536.327,225.498 513.5,224.5 Z"/></g>
<g><path style="opacity:0.006" fill="#f2ebf9" d="M 280.5,224.5 C 318.5,224.5 356.5,224.5 394.5,224.5C 393.942,225.79 392.942,226.623 391.5,227C 355.833,227.667 320.167,227.667 284.5,227C 282.934,226.392 281.6,225.558 280.5,224.5 Z"/></g>
<g><path style="opacity:0.006" fill="#fdfdfe" d="M 511.5,224.5 C 512.167,224.5 512.833,224.5 513.5,224.5C 536.327,225.498 559.327,225.831 582.5,225.5C 582.082,226.222 581.416,226.722 580.5,227C 558.5,227.667 536.5,227.667 514.5,227C 513.058,226.623 512.058,225.79 511.5,224.5 Z"/></g>
<g><path style="opacity:0.114" fill="#f0e9f8" d="M 590.5,227.5 C 593.198,227.845 595.198,229.178 596.5,231.5C 594.983,231.489 593.816,230.823 593,229.5C 591.692,230.151 590.859,229.485 590.5,227.5 Z"/></g>
<g><path style="opacity:0.009" fill="#f3edf9" d="M 596.5,231.5 C 598.5,231.5 599.5,232.5 599.5,234.5C 596.506,234.854 595.506,233.854 596.5,231.5 Z"/></g>
<g><path style="opacity:0.004" fill="#f4effa" d="M 599.5,234.5 C 600.5,234.833 601.167,235.5 601.5,236.5C 600.833,236.5 600.5,236.833 600.5,237.5C 599.596,236.791 599.263,235.791 599.5,234.5 Z"/></g>
<g><path style="opacity:0.004" fill="#f1eaf9" d="M 601.5,236.5 C 603.974,238.898 605.308,241.898 605.5,245.5C 604.5,245.5 603.5,245.5 602.5,245.5C 602.635,242.583 601.968,239.916 600.5,237.5C 601.167,237.5 601.5,237.167 601.5,236.5 Z"/></g>
<g><path style="opacity:0.005" fill="#f0e8f8" d="M 605.5,245.5 C 606.715,249.033 606.715,252.699 605.5,256.5C 604.167,256.833 604.167,257.167 605.5,257.5C 605.598,259.553 604.931,261.22 603.5,262.5C 602.585,258.724 603.251,255.058 605.5,251.5C 604.963,250.259 604.296,249.092 603.5,248C 604.509,247.645 605.176,246.812 605.5,245.5 Z"/></g>
<g><path style="opacity:0.01" fill="#ece2f6" d="M 603.5,262.5 C 602.737,266.37 600.737,269.37 597.5,271.5C 597.389,270.883 597.056,270.383 596.5,270C 598.732,267.566 601.065,265.066 603.5,262.5 Z"/></g>
<g><path style="opacity:0.009" fill="#ebe2f6" d="M 597.5,271.5 C 596.564,272.974 595.23,273.974 593.5,274.5C 593.5,273.5 593.5,272.5 593.5,271.5C 594.833,271.5 596.167,271.5 597.5,271.5 Z"/></g>
<g><path style="opacity:0.004" fill="#f3edf9" d="M 587.5,275.5 C 588.632,274.646 589.965,274.646 591.5,275.5C 590.791,276.404 589.791,276.737 588.5,276.5C 588.5,275.833 588.167,275.5 587.5,275.5 Z"/></g>
<g><path style="opacity:0.004" fill="#f9f7fc" d="M 587.5,275.5 C 588.167,275.5 588.5,275.833 588.5,276.5C 587.737,277.268 586.737,277.768 585.5,278C 468.834,278.5 352.167,278.667 235.5,278.5C 236.609,277.71 237.942,277.21 239.5,277C 355.54,276.829 471.54,276.329 587.5,275.5 Z"/></g>
<g><path style="opacity:0.004" fill="#f3eef9" d="M 235.5,278.5 C 233.401,279.612 231.067,280.279 228.5,280.5C 228.158,279.662 227.492,279.328 226.5,279.5C 229.23,277.409 232.23,277.076 235.5,278.5 Z"/></g>
<g><path style="opacity:0.012" fill="#ece3f6" d="M 226.5,279.5 C 226.5,280.167 226.833,280.5 227.5,280.5C 224.669,282.417 221.669,284.083 218.5,285.5C 218.5,285.167 218.5,284.833 218.5,284.5C 220.794,282.347 223.46,280.68 226.5,279.5 Z"/></g>
<g><path style="opacity:0.004" fill="#fdfefe" d="M 218.5,284.5 C 217.833,283.167 217.833,283.167 218.5,284.5 Z"/></g>
<g><path style="opacity:0.176" fill="#eadff5" d="M 218.5,285.5 C 217.205,286.488 215.872,287.488 214.5,288.5C 214.694,286.088 216.027,285.088 218.5,285.5 Z"/></g>
<g><path style="opacity:0.008" fill="#eee6f7" d="M 214.5,288.5 C 213.167,290.5 211.5,292.167 209.5,293.5C 209.389,292.883 209.056,292.383 208.5,292C 210.333,290.833 211.833,289.333 213,287.5C 213.383,288.056 213.883,288.389 214.5,288.5 Z"/></g>
<g><path style="opacity:0.071" fill="#f1eaf8" d="M 209.5,293.5 C 208.396,295.389 207.063,297.055 205.5,298.5C 205.077,295.876 206.41,294.209 209.5,293.5 Z"/></g>
<g><path style="opacity:0.008" fill="#f6f2fa" d="M 203.5,299.5 C 203.842,298.662 204.508,298.328 205.5,298.5C 205.672,299.492 205.338,300.158 204.5,300.5C 204.5,299.833 204.167,299.5 203.5,299.5 Z"/></g>
<g><path style="opacity:0.004" fill="#f4effa" d="M 203.5,299.5 C 204.167,299.5 204.5,299.833 204.5,300.5C 204.672,301.492 204.338,302.158 203.5,302.5C 202.375,301.348 202.375,300.348 203.5,299.5 Z"/></g>
<g><path style="opacity:0.004" fill="#f3edf9" d="M 203.5,302.5 C 203.204,304.403 202.537,306.07 201.5,307.5C 201.5,306.833 201.167,306.5 200.5,306.5C 200.554,304.368 201.554,303.035 203.5,302.5 Z"/></g>
<g><path style="opacity:0.588" fill="#ddccef" d="M 200.5,306.5 C 201.167,306.5 201.5,306.833 201.5,307.5C 199.235,319.635 200.568,331.302 205.5,342.5C 204.504,342.586 203.671,342.252 203,341.5C 202.361,338.44 201.195,335.607 199.5,333C 199.735,332.127 200.069,331.293 200.5,330.5C 199.788,327.352 199.121,324.186 198.5,321C 199.485,315.924 200.152,311.091 200.5,306.5 Z"/></g>
<g><path style="opacity:0.71" fill="#be9be0" d="M 720.5,191.5 C 720.833,191.5 721.167,191.5 721.5,191.5C 722.833,323.5 722.833,455.5 721.5,587.5C 721.167,587.5 720.833,587.5 720.5,587.5C 720.5,455.5 720.5,323.5 720.5,191.5 Z"/></g>
<g><path style="opacity:0.008" fill="#f2ebf8" d="M 205.5,342.5 C 206.974,343.436 207.974,344.77 208.5,346.5C 205.45,346.354 204.45,345.02 205.5,342.5 Z"/></g>
<g><path style="opacity:0.004" fill="#f2ecf9" d="M 208.5,346.5 C 211.281,349.736 214.281,352.736 217.5,355.5C 212.486,354.444 209.486,351.444 208.5,346.5 Z"/></g>
<g><path style="opacity:0.006" fill="#f0e9f8" d="M 218.5,355.5 C 219.5,355.833 220.167,356.5 220.5,357.5C 218.797,358.66 218.131,357.993 218.5,355.5 Z"/></g>
<g><path style="opacity:0.043" fill="#eee6f7" d="M 220.5,357.5 C 222.38,357.229 223.713,357.896 224.5,359.5C 223.833,359.5 223.5,359.833 223.5,360.5C 222.167,359.833 221.167,358.833 220.5,357.5 Z"/></g>
<g><path style="opacity:0.004" fill="#fdfefe" d="M 223.5,360.5 C 224.167,360.5 224.833,360.5 225.5,360.5C 224.833,361.833 224.167,361.833 223.5,360.5 Z"/></g>
<g><path style="opacity:0.25" fill="#dbc9ee" d="M 227.5,360.5 C 230.216,360.678 232.883,361.178 235.5,362C 324.334,362.167 413.001,362.667 501.5,363.5C 414.5,363.5 327.5,363.5 240.5,363.5C 235.49,365.158 231.157,364.158 227.5,360.5 Z"/></g>
<g><path style="opacity:0.004" fill="#fdfdfe" d="M 240.5,363.5 C 327.5,363.5 414.5,363.5 501.5,363.5C 502.492,363.328 503.158,363.662 503.5,364.5C 416.188,365.656 328.855,365.823 241.5,365C 240.944,364.617 240.611,364.117 240.5,363.5 Z"/></g>
<g><path style="opacity:0.004" fill="#fdfefe" d="M 504.5,365.5 C 503.833,366.167 503.833,366.167 504.5,365.5 Z"/></g>
<g><path style="opacity:0.009" fill="#f0e8f8" d="M 504.5,365.5 C 504.5,365.167 504.5,364.833 504.5,364.5C 506.434,365.11 508.101,366.11 509.5,367.5C 507.452,368.326 505.785,367.659 504.5,365.5 Z"/></g>
<g><path style="opacity:0.004" fill="#efe7f8" d="M 509.5,367.5 C 510.492,367.328 511.158,367.662 511.5,368.5C 510.833,368.5 510.5,368.833 510.5,369.5C 509.662,369.158 509.328,368.492 509.5,367.5 Z"/></g>
<g><path style="opacity:0.004" fill="#fdfefe" d="M 510.5,369.5 C 510.833,369.5 511.167,369.5 511.5,369.5C 511.315,370.17 510.981,370.17 510.5,369.5 Z"/></g>
<g><path style="opacity:0.004" fill="#f2edf9" d="M 512.5,369.5 C 514.89,370.891 516.557,372.891 517.5,375.5C 516.833,375.5 516.5,375.833 516.5,376.5C 514.917,374.337 513.584,372.004 512.5,369.5 Z"/></g>
<g><path style="opacity:0.008" fill="#eee5f7" d="M 517.5,375.5 C 520.598,378.793 521.931,382.793 521.5,387.5C 521.167,387.5 520.833,387.5 520.5,387.5C 519.659,383.555 518.325,379.888 516.5,376.5C 517.167,376.5 517.5,376.167 517.5,375.5 Z"/></g>
<g><path style="opacity:0.006" fill="#f4effa" d="M 520.5,387.5 C 520.5,388.167 520.833,388.5 521.5,388.5C 521.665,391.518 521.498,394.518 521,397.5C 520.722,398.416 520.222,399.082 519.5,399.5C 519.196,398.85 518.863,398.183 518.5,397.5C 520.357,394.173 521.024,390.84 520.5,387.5 Z"/></g>
<g><path style="opacity:0.031" fill="#eee5f7" d="M 519.5,399.5 C 519.737,400.791 519.404,401.791 518.5,402.5C 518.586,401.504 518.252,400.671 517.5,400C 518.094,399.536 518.761,399.369 519.5,399.5 Z"/></g>
<g><path style="opacity:0.009" fill="#f2ebf9" d="M 518.5,402.5 C 516.811,407.522 513.478,410.856 508.5,412.5C 511.648,409.148 514.482,405.482 517,401.5C 517.383,402.056 517.883,402.389 518.5,402.5 Z"/></g>
<g><path style="opacity:0.011" fill="#f5f0fa" d="M 508.5,412.5 C 507.486,413.674 506.153,414.34 504.5,414.5C 505.195,412.15 506.528,411.483 508.5,412.5 Z"/></g>
<g><path style="opacity:0.004" fill="#faf8fd" d="M 251.5,416.5 C 250.833,416.5 250.5,416.833 250.5,417.5C 249.833,417.5 249.167,417.5 248.5,417.5C 249.353,415.074 251.019,414.24 253.5,415C 252.584,415.278 251.918,415.778 251.5,416.5 Z"/></g>
<g><path style="opacity:0.005" fill="#faf7fc" d="M 320.5,417.5 C 319.5,417.5 318.5,417.5 317.5,417.5C 317.5,416.833 317.167,416.5 316.5,416.5C 314.946,415.105 315.279,414.439 317.5,414.5C 319.373,414.482 319.706,414.982 318.5,416C 319.416,416.278 320.082,416.778 320.5,417.5 Z"/></g>
<g><path style="opacity:0.005" fill="#f9f6fc" d="M 435.5,416.5 C 434.833,416.5 434.5,416.833 434.5,417.5C 433.833,417.5 433.167,417.5 432.5,417.5C 432.5,417.167 432.5,416.833 432.5,416.5C 433.473,415.016 434.807,414.516 436.5,415C 435.944,415.383 435.611,415.883 435.5,416.5 Z"/></g>
<g><path style="opacity:0.184" fill="#f0eaf8" d="M 503.5,414.5 C 502.791,415.404 501.791,415.737 500.5,415.5C 501.172,414.733 502.005,414.066 503,413.5C 503.399,413.728 503.565,414.062 503.5,414.5 Z"/></g>
<g><path style="opacity:0.007" fill="#fefefe" d="M 432.5,416.5 C 431.448,416.649 430.448,416.483 429.5,416C 430.749,415.26 431.749,415.427 432.5,416.5 Z"/></g>
<g><path style="opacity:0.699" fill="#bc99df" d="M 316.5,416.5 C 317.167,416.5 317.5,416.833 317.5,417.5C 295.167,417.5 272.833,417.5 250.5,417.5C 250.5,416.833 250.833,416.5 251.5,416.5C 273.179,415.177 294.846,415.177 316.5,416.5 Z"/></g>
<g><path style="opacity:0.687" fill="#c1a0e2" d="M 500.5,415.5 C 499.048,416.302 497.382,416.802 495.5,417C 475.169,417.5 454.836,417.667 434.5,417.5C 434.5,416.833 434.833,416.5 435.5,416.5C 457.121,415.522 478.788,415.189 500.5,415.5 Z"/></g>
<g><path style="opacity:0.005" fill="#f6f2fb" d="M 246.5,417.5 C 243.244,418.786 239.911,420.12 236.5,421.5C 236.574,419.589 237.574,418.422 239.5,418C 241.921,416.952 244.254,416.786 246.5,417.5 Z"/></g>
<g><path style="opacity:1" fill="#712dbd" d="M 246.5,417.5 C 247.167,417.5 247.833,417.5 248.5,417.5C 249.167,417.5 249.833,417.5 250.5,417.5C 272.833,417.5 295.167,417.5 317.5,417.5C 318.5,417.5 319.5,417.5 320.5,417.5C 320.833,417.5 321.167,417.5 321.5,417.5C 324.518,419.4 327.851,420.733 331.5,421.5C 333.147,423.326 335.147,424.66 337.5,425.5C 338.5,427.167 339.833,428.5 341.5,429.5C 341.833,429.5 342.167,429.5 342.5,429.5C 342.5,429.833 342.5,430.167 342.5,430.5C 343.604,432.389 344.937,434.055 346.5,435.5C 347.853,438.205 349.186,440.872 350.5,443.5C 350.328,444.492 350.662,445.158 351.5,445.5C 351.5,445.833 351.5,446.167 351.5,446.5C 351.993,448.806 352.326,451.139 352.5,453.5C 352.872,460.301 352.206,466.967 350.5,473.5C 348.935,475.509 347.935,477.843 347.5,480.5C 345.453,482.55 343.786,484.883 342.5,487.5C 341.833,488.167 341.167,488.833 340.5,489.5C 339.29,489.932 338.29,490.599 337.5,491.5C 336.5,491.833 335.833,492.5 335.5,493.5C 332.07,494.714 328.736,496.214 325.5,498C 321.531,498.853 317.531,499.519 313.5,500C 293.167,500.667 272.833,500.667 252.5,500C 247.647,499.453 242.98,498.287 238.5,496.5C 235.841,494.836 233.175,493.17 230.5,491.5C 229.5,489.833 228.167,488.5 226.5,487.5C 223.408,483.749 220.741,479.749 218.5,475.5C 218.204,473.597 217.537,471.93 216.5,470.5C 215.835,463.52 215.502,456.52 215.5,449.5C 216.404,448.791 216.737,447.791 216.5,446.5C 217.537,445.07 218.204,443.403 218.5,441.5C 220.083,439.337 221.416,437.004 222.5,434.5C 224.156,432.54 225.823,430.54 227.5,428.5C 228.833,427.833 229.833,426.833 230.5,425.5C 230.833,425.5 231.167,425.5 231.5,425.5C 233.389,424.396 235.055,423.063 236.5,421.5C 239.911,420.12 243.244,418.786 246.5,417.5 Z"/></g>
<g><path style="opacity:0.005" fill="#f0e8f8" d="M 331.5,421.5 C 327.851,420.733 324.518,419.4 321.5,417.5C 323.527,416.875 325.36,416.875 327,417.5C 328.067,418.191 329.234,418.691 330.5,419C 331.252,419.671 331.586,420.504 331.5,421.5 Z"/></g>
<g><path style="opacity:0.004" fill="#f2ecf9" d="M 430.5,417.5 C 428.152,419.097 425.486,420.097 422.5,420.5C 422.389,419.883 422.056,419.383 421.5,419C 424.538,417.454 427.538,416.954 430.5,417.5 Z"/></g>
<g><path style="opacity:0.01" fill="#f1eaf8" d="M 420.5,421.5 C 419.564,422.974 418.23,423.974 416.5,424.5C 416.5,423.5 416.5,422.5 416.5,421.5C 417.833,421.5 419.167,421.5 420.5,421.5 Z"/></g>
<g><path style="opacity:0.009" fill="#f0e9f8" d="M 236.5,421.5 C 235.055,423.063 233.389,424.396 231.5,425.5C 231.5,424.5 231.5,423.5 231.5,422.5C 233.124,422.64 234.29,421.973 235,420.5C 235.383,421.056 235.883,421.389 236.5,421.5 Z"/></g>
<g><path style="opacity:0.153" fill="#e7daf4" d="M 337.5,425.5 C 335.147,424.66 333.147,423.326 331.5,421.5C 332.76,421.201 333.927,421.201 335,421.5C 336.095,422.693 336.928,424.027 337.5,425.5 Z"/></g>
<g><path style="opacity:0.004" fill="#faf7fc" d="M 230.5,425.5 C 229.833,426.833 228.833,427.833 227.5,428.5C 227.539,427.417 227.873,426.417 228.5,425.5C 229.257,424.227 229.923,424.227 230.5,425.5 Z"/></g>
<g><path style="opacity:0.011" fill="#f1ebf9" d="M 341.5,429.5 C 339.833,428.5 338.5,427.167 337.5,425.5C 340.217,424.871 341.55,426.204 341.5,429.5 Z"/></g>
<g><path style="opacity:0.008" fill="#fdfefd" d="M 342.5,428.5 C 343.833,429.167 343.833,429.167 342.5,428.5 Z"/></g>
<g><path style="opacity:0.11" fill="#f2ecf9" d="M 416.5,424.5 C 413.167,427.167 410.167,430.167 407.5,433.5C 408.833,428.833 411.833,425.833 416.5,424.5 Z"/></g>
<g><path style="opacity:0.071" fill="#f2ebf9" d="M 227.5,428.5 C 225.823,430.54 224.156,432.54 222.5,434.5C 222.764,431.243 224.43,429.243 227.5,428.5 Z"/></g>
<g><path style="opacity:0.009" fill="#f2ecf9" d="M 342.5,430.5 C 344.749,431.08 346.415,432.413 347.5,434.5C 346.833,434.5 346.5,434.833 346.5,435.5C 344.937,434.055 343.604,432.389 342.5,430.5 Z"/></g>
<g><path style="opacity:0.004" fill="#f3eef9" d="M 407.5,433.5 C 406.154,435.537 404.82,437.537 403.5,439.5C 403.833,437.5 404.167,435.5 404.5,433.5C 405.5,433.5 406.5,433.5 407.5,433.5 Z"/></g>
<g><path style="opacity:0.004" fill="#fdfefe" d="M 347.5,434.5 C 348.833,435.167 348.833,435.167 347.5,434.5 Z"/></g>
<g><path style="opacity:0.007" fill="#ece3f6" d="M 222.5,434.5 C 221.416,437.004 220.083,439.337 218.5,441.5C 217.416,438.015 218.749,435.682 222.5,434.5 Z"/></g>
<g><path style="opacity:0.004" fill="#eee5f7" d="M 346.5,435.5 C 346.833,435.5 347.167,435.5 347.5,435.5C 350.27,437.674 351.27,440.34 350.5,443.5C 349.186,440.872 347.853,438.205 346.5,435.5 Z"/></g>
<g><path style="opacity:0.004" fill="#f5f1fa" d="M 403.5,439.5 C 403.34,441.153 402.674,442.486 401.5,443.5C 400.314,441.806 400.481,440.139 402,438.5C 402.383,439.056 402.883,439.389 403.5,439.5 Z"/></g>
<g><path style="opacity:0.005" fill="#f5f0fa" d="M 218.5,441.5 C 218.204,443.403 217.537,445.07 216.5,446.5C 215.01,444.052 215.677,442.385 218.5,441.5 Z"/></g>
<g><path style="opacity:0.004" fill="#fdfefe" d="M 351.5,442.5 C 352.833,443.167 352.833,443.167 351.5,442.5 Z"/></g>
<g><path style="opacity:0.004" fill="#f3edf9" d="M 350.5,443.5 C 350.833,443.5 351.167,443.5 351.5,443.5C 354.451,446.466 355.118,449.799 353.5,453.5C 353.167,453.5 352.833,453.5 352.5,453.5C 352.326,451.139 351.993,448.806 351.5,446.5C 352.833,446.167 352.833,445.833 351.5,445.5C 350.662,445.158 350.328,444.492 350.5,443.5 Z"/></g>
<g><path style="opacity:0.009" fill="#f0e9f8" d="M 401.5,443.5 C 401.326,445.861 400.993,448.194 400.5,450.5C 400.167,450.5 399.833,450.5 399.5,450.5C 398.127,447.617 398.793,445.283 401.5,443.5 Z"/></g>
<g><path style="opacity:0.004" fill="#f6f2fb" d="M 216.5,446.5 C 216.737,447.791 216.404,448.791 215.5,449.5C 213.871,447.804 214.204,446.804 216.5,446.5 Z"/></g>
<g><path style="opacity:0.004" fill="#fdfefe" d="M 396.5,455.5 C 397.622,457.288 397.789,459.288 397,461.5C 396.505,459.527 396.338,457.527 396.5,455.5 Z"/></g>
<g><path style="opacity:0.183" fill="#e8ddf4" d="M 215.5,449.5 C 215.502,456.52 215.835,463.52 216.5,470.5C 214.914,468.919 213.914,466.919 213.5,464.5C 214.799,460.68 214.799,456.847 213.5,453C 213.808,451.541 214.475,450.374 215.5,449.5 Z"/></g>
<g><path style="opacity:0.88" fill="#b38bdb" d="M 399.5,450.5 C 399.833,450.5 400.167,450.5 400.5,450.5C 400.5,455.833 400.5,461.167 400.5,466.5C 400.167,466.5 399.833,466.5 399.5,466.5C 398.167,461.167 398.167,455.833 399.5,450.5 Z"/></g>
<g><path style="opacity:0.004" fill="#fdfefe" d="M 212.5,457.5 C 213.833,458.167 213.833,458.167 212.5,457.5 Z"/></g>
<g><path style="opacity:0.004" fill="#fdfefe" d="M 398.5,467.5 C 397.427,466.749 397.26,465.749 398,464.5C 398.483,465.448 398.649,466.448 398.5,467.5 Z"/></g>
<g><path style="opacity:0.005" fill="#e6daf3" d="M 352.5,453.5 C 352.833,453.5 353.167,453.5 353.5,453.5C 354.359,457.739 354.693,461.906 354.5,466C 354.241,467.261 353.574,468.261 352.5,469C 353.167,469.333 353.833,469.667 354.5,470C 353.461,471.617 352.461,472.783 351.5,473.5C 351.167,473.5 350.833,473.5 350.5,473.5C 352.206,466.967 352.872,460.301 352.5,453.5 Z"/></g>
<g><path style="opacity:0.027" fill="#f3edf9" d="M 399.5,466.5 C 399.833,466.5 400.167,466.5 400.5,466.5C 400.993,468.806 401.326,471.139 401.5,473.5C 399.654,471.97 398.654,469.97 398.5,467.5C 399.167,467.5 399.5,467.167 399.5,466.5 Z"/></g>
<g><path style="opacity:0.009" fill="#f5f0fa" d="M 216.5,470.5 C 217.537,471.93 218.204,473.597 218.5,475.5C 215.792,474.586 215.125,472.919 216.5,470.5 Z"/></g>
<g><path style="opacity:0.004" fill="#fdfefe" d="M 351.5,473.5 C 352.833,474.167 352.833,474.167 351.5,473.5 Z"/></g>
<g><path style="opacity:0.09" fill="#e9def4" d="M 401.5,473.5 C 403.83,477.492 406.163,481.492 408.5,485.5C 405.62,483.764 403.953,481.598 403.5,479C 402.833,478.667 402.167,478.333 401.5,478C 401.966,476.701 401.966,475.201 401.5,473.5 Z"/></g>
<g><path style="opacity:0.012" fill="#e7dbf4" d="M 350.5,473.5 C 350.66,475.199 350.494,476.866 350,478.5C 349.583,479.756 348.75,480.423 347.5,480.5C 347.935,477.843 348.935,475.509 350.5,473.5 Z"/></g>
<g><path style="opacity:0.014" fill="#efe6f7" d="M 218.5,475.5 C 220.741,479.749 223.408,483.749 226.5,487.5C 225.417,487.461 224.417,487.127 223.5,486.5C 222.416,483.912 220.749,481.745 218.5,480C 217.652,478.812 217.652,477.312 218.5,475.5 Z"/></g>
<g><path style="opacity:0.009" fill="#f0e8f8" d="M 347.5,480.5 C 347.774,484.202 346.108,486.535 342.5,487.5C 343.786,484.883 345.453,482.55 347.5,480.5 Z"/></g>
<g><path style="opacity:0.007" fill="#f3edf9" d="M 408.5,485.5 C 409.5,485.833 410.167,486.5 410.5,487.5C 408.167,488.5 407.5,487.833 408.5,485.5 Z"/></g>
<g><path style="opacity:0.01" fill="#ebe1f6" d="M 226.5,487.5 C 228.167,488.5 229.5,489.833 230.5,491.5C 227.821,491.475 226.488,490.142 226.5,487.5 Z"/></g>
<g><path style="opacity:0.005" fill="#f2ebf9" d="M 410.5,487.5 C 412.167,488.5 413.5,489.833 414.5,491.5C 411.858,491.512 410.525,490.179 410.5,487.5 Z"/></g>
<g><path style="opacity:0.004" fill="#f3eef9" d="M 340.5,489.5 C 340.179,491.048 339.179,491.715 337.5,491.5C 338.29,490.599 339.29,489.932 340.5,489.5 Z"/></g>
<g><path style="opacity:0.005" fill="#f5f1fa" d="M 337.5,491.5 C 338.5,493.833 337.833,494.5 335.5,493.5C 335.833,492.5 336.5,491.833 337.5,491.5 Z"/></g>
<g><path style="opacity:0.09" fill="#e9ddf4" d="M 230.5,491.5 C 233.175,493.17 235.841,494.836 238.5,496.5C 237.833,496.5 237.5,496.833 237.5,497.5C 234.573,496.243 232.239,494.243 230.5,491.5 Z"/></g>
<g><path style="opacity:0.004" fill="#fdfefe" d="M 237.5,497.5 C 237.833,497.5 238.167,497.5 238.5,497.5C 238.315,498.17 237.981,498.17 237.5,497.5 Z"/></g>
<g><path style="opacity:0.004" fill="#fefefe" d="M 330.5,497.5 C 330.833,497.5 331.167,497.5 331.5,497.5C 331.315,498.17 330.981,498.17 330.5,497.5 Z"/></g>
<g><path style="opacity:0.004" fill="#fefefe" d="M 421.5,497.5 C 421.833,497.5 422.167,497.5 422.5,497.5C 422.315,498.17 421.981,498.17 421.5,497.5 Z"/></g>
<g><path style="opacity:0.221" fill="#e5d9f3" d="M 335.5,493.5 C 334.5,495.167 333.167,496.5 331.5,497.5C 331.167,496.167 330.833,496.167 330.5,497.5C 327.622,498.37 324.955,499.703 322.5,501.5C 297.153,501.48 271.82,501.48 246.5,501.5C 245.803,499.615 244.803,499.282 243.5,500.5C 241.971,499.237 240.305,498.237 238.5,497.5C 238.5,497.167 238.5,496.833 238.5,496.5C 242.98,498.287 247.647,499.453 252.5,500C 272.833,500.667 293.167,500.667 313.5,500C 317.531,499.519 321.531,498.853 325.5,498C 328.736,496.214 332.07,494.714 335.5,493.5 Z"/></g>
<g><path style="opacity:0.184" fill="#e7dbf4" d="M 414.5,491.5 C 421.02,496.253 428.354,499.087 436.5,500C 477.335,500.167 518.002,500.667 558.5,501.5C 515.752,501.472 473.086,501.472 430.5,501.5C 427.591,500.576 424.924,499.243 422.5,497.5C 422.167,496.167 421.833,496.167 421.5,497.5C 419.566,495.703 417.233,494.703 414.5,494.5C 414.5,493.5 414.5,492.5 414.5,491.5 Z"/></g>
<g><path style="opacity:0.004" fill="#fdfefe" d="M 248.5,502.5 C 248.897,501.475 249.563,501.308 250.5,502C 249.906,502.464 249.239,502.631 248.5,502.5 Z"/></g>
<g><path style="opacity:0.004" fill="#fdfefe" d="M 318.5,502.5 C 318.897,501.475 319.563,501.308 320.5,502C 319.906,502.464 319.239,502.631 318.5,502.5 Z"/></g>
<g><path style="opacity:0.004" fill="#fdfefe" d="M 432.5,502.5 C 432.897,501.475 433.563,501.308 434.5,502C 433.906,502.464 433.239,502.631 432.5,502.5 Z"/></g>
<g><path style="opacity:0.004" fill="#fdfefe" d="M 560.5,502.5 C 560.103,503.525 559.437,503.692 558.5,503C 559.094,502.536 559.761,502.369 560.5,502.5 Z"/></g>
<g><path style="opacity:0.004" fill="#f0e9f8" d="M 560.5,502.5 C 560.5,502.167 560.5,501.833 560.5,501.5C 564.733,501.457 568.4,502.79 571.5,505.5C 567.536,505.378 563.869,504.378 560.5,502.5 Z"/></g>
<g><path style="opacity:0.005" fill="#f1eaf8" d="M 571.5,505.5 C 575.319,507.469 577.986,510.469 579.5,514.5C 579.167,514.5 578.833,514.5 578.5,514.5C 577.284,512.549 575.618,511.049 573.5,510C 573.833,509.667 574.167,509.333 574.5,509C 571.553,508.925 570.553,507.758 571.5,505.5 Z"/></g>
<g><path style="opacity:0.004" fill="#fdfefd" d="M 578.5,514.5 C 577.833,515.167 577.833,515.167 578.5,514.5 Z"/></g>
<g><path style="opacity:0.006" fill="#f0e9f8" d="M 579.5,514.5 C 582.508,518.169 583.842,522.502 583.5,527.5C 583.867,531.653 582.867,535.32 580.5,538.5C 580.761,530.62 580.427,522.62 579.5,514.5 Z"/></g>
<g><path style="opacity:0.01" fill="#f9f7fc" d="M 578.5,539.5 C 578.842,538.662 579.508,538.328 580.5,538.5C 580.672,539.492 580.338,540.158 579.5,540.5C 579.5,539.833 579.167,539.5 578.5,539.5 Z"/></g>
<g><path style="opacity:0.01" fill="#f6f1fa" d="M 578.5,539.5 C 579.167,539.5 579.5,539.833 579.5,540.5C 579.573,542.027 578.906,543.027 577.5,543.5C 577.232,541.901 577.566,540.568 578.5,539.5 Z"/></g>
<g><path style="opacity:0.008" fill="#f1eaf8" d="M 577.5,543.5 C 577.573,545.027 576.906,546.027 575.5,546.5C 575.5,545.833 575.167,545.5 574.5,545.5C 574.973,544.094 575.973,543.427 577.5,543.5 Z"/></g>
<g><path style="opacity:0.005" fill="#efe6f7" d="M 574.5,545.5 C 575.167,545.5 575.5,545.833 575.5,546.5C 574.738,548.262 573.404,549.262 571.5,549.5C 571.5,548.833 571.167,548.5 570.5,548.5C 571.795,547.512 573.128,546.512 574.5,545.5 Z"/></g>
<g><path style="opacity:0.153" fill="#e8def4" d="M 570.5,548.5 C 571.167,548.5 571.5,548.833 571.5,549.5C 570.089,551.539 568.089,552.539 565.5,552.5C 567.142,551.197 568.809,549.864 570.5,548.5 Z"/></g>
<g><path style="opacity:0.051" fill="#f8f5fc" d="M 565.5,552.5 C 565.082,553.222 564.416,553.722 563.5,554C 483.155,554.19 402.822,554.69 322.5,555.5C 324.019,554.59 325.685,553.757 327.5,553C 405.887,552.342 484.221,552.342 562.5,553C 560.405,552.444 560.238,551.944 562,551.5C 563.138,551.989 564.305,552.322 565.5,552.5 Z"/></g>
<g><path style="opacity:0.004" fill="#f7f4fb" d="M 322.5,555.5 C 321.329,556.345 319.995,557.011 318.5,557.5C 318.351,556.448 318.517,555.448 319,554.5C 320.145,554.619 321.312,554.952 322.5,555.5 Z"/></g>
<g><path style="opacity:0.004" fill="#fdfefe" d="M 316.5,555.5 C 317.833,556.167 317.833,556.167 316.5,555.5 Z"/></g>
<g><path style="opacity:0.01" fill="#f7f3fb" d="M 316.5,556.5 C 316.5,557.167 316.833,557.5 317.5,557.5C 317.158,558.338 316.492,558.672 315.5,558.5C 315.328,557.508 315.662,556.842 316.5,556.5 Z"/></g>
<g><path style="opacity:0.01" fill="#f1ebf8" d="M 315.5,558.5 C 314.035,559.737 312.368,560.737 310.5,561.5C 311.048,558.916 312.715,557.916 315.5,558.5 Z"/></g>
<g><path style="opacity:0.008" fill="#ece2f6" d="M 310.5,561.5 C 309.564,562.974 308.23,563.974 306.5,564.5C 306.694,562.088 308.027,561.088 310.5,561.5 Z"/></g>
<g><path style="opacity:0.004" fill="#fdfefe" d="M 304.5,565.5 C 303.833,564.167 303.833,564.167 304.5,565.5 Z"/></g>
<g><path style="opacity:0.831" fill="#be9ce0" d="M 304.5,565.5 C 304.833,565.5 305.167,565.5 305.5,565.5C 305.19,567.144 304.19,568.144 302.5,568.5C 302.782,567.222 303.449,566.222 304.5,565.5 Z"/></g>
<g><path style="opacity:0.004" fill="#fdfefe" d="M 301.5,568.5 C 300.833,567.167 300.833,567.167 301.5,568.5 Z"/></g>
<g><path style="opacity:0.005" fill="#f2ebf9" d="M 301.5,569.5 C 300.525,571.795 299.192,573.795 297.5,575.5C 296.628,572.324 297.961,570.324 301.5,569.5 Z"/></g>
<g><path style="opacity:0.004" fill="#ebe0f5" d="M 297.5,575.5 C 296.89,577.434 295.89,579.101 294.5,580.5C 293.588,578.012 294.588,576.345 297.5,575.5 Z"/></g>
<g><path style="opacity:0.014" fill="#f6f1fa" d="M 294.5,580.5 C 294.737,581.791 294.404,582.791 293.5,583.5C 293.586,582.504 293.252,581.671 292.5,581C 293.094,580.536 293.761,580.369 294.5,580.5 Z"/></g>
<g><path style="opacity:0.004" fill="#fdfefe" d="M 292.5,584.5 C 291.833,583.167 291.833,583.167 292.5,584.5 Z"/></g>
<g><path style="opacity:0.004" fill="#fefefe" d="M 721.5,587.5 C 722.573,588.251 722.74,589.251 722,590.5C 721.517,589.552 721.351,588.552 721.5,587.5 Z"/></g>
<g><path style="opacity:0.063" fill="#f1ebf8" d="M 720.5,589.5 C 722.078,592.762 721.411,595.428 718.5,597.5C 718.565,594.572 719.232,591.905 720.5,589.5 Z"/></g>
<g><path style="opacity:0.31" fill="#e6d9f3" d="M 292.5,584.5 C 292.833,584.5 293.167,584.5 293.5,584.5C 292.698,591.804 292.365,599.138 292.5,606.5C 291.761,606.631 291.094,606.464 290.5,606C 290.789,600.724 290.789,595.224 290.5,589.5C 290.667,588.167 290.833,586.833 291,585.5C 292.107,586.712 292.607,586.379 292.5,584.5 Z"/></g>
<g><path style="opacity:0.005" fill="#efe7f8" d="M 718.5,597.5 C 719.579,601.527 718.245,604.694 714.5,607C 714.677,611.089 712.677,613.922 708.5,615.5C 709.026,613.77 710.026,612.436 711.5,611.5C 712.833,611.167 712.833,610.833 711.5,610.5C 712.929,607.304 714.595,604.304 716.5,601.5C 716.66,599.847 717.326,598.514 718.5,597.5 Z"/></g>
<g><path style="opacity:0.004" fill="#ede5f7" d="M 293.5,608.5 C 295.02,610.89 296.02,613.557 296.5,616.5C 295.25,616.423 294.417,615.756 294,614.5C 293.505,612.527 293.338,610.527 293.5,608.5 Z"/></g>
<g><path style="opacity:0.106" fill="#eadff5" d="M 297.5,618.5 C 299.063,619.945 300.396,621.611 301.5,623.5C 299.551,622.816 297.885,621.649 296.5,620C 297.056,619.617 297.389,619.117 297.5,618.5 Z"/></g>
<g><path style="opacity:0.008" fill="#f0e8f8" d="M 707.5,616.5 C 707.611,617.117 707.944,617.617 708.5,618C 706.333,620.833 703.833,623.333 701,625.5C 700.617,624.944 700.117,624.611 699.5,624.5C 702.5,622.167 705.167,619.5 707.5,616.5 Z"/></g>
<g><path style="opacity:0.008" fill="#f0e8f8" d="M 699.5,624.5 C 699.657,627.344 698.324,629.011 695.5,629.5C 695.5,628.833 695.167,628.5 694.5,628.5C 695.945,626.937 697.611,625.604 699.5,624.5 Z"/></g>
<g><path style="opacity:0.106" fill="#ece3f6" d="M 302.5,624.5 C 303.974,625.436 304.974,626.77 305.5,628.5C 303.088,628.306 302.088,626.973 302.5,624.5 Z"/></g>
<g><path style="opacity:0.004" fill="#fefefe" d="M 694.5,629.5 C 694.833,629.5 695.167,629.5 695.5,629.5C 695.315,630.17 694.981,630.17 694.5,629.5 Z"/></g>
<g><path style="opacity:0.059" fill="#efe7f7" d="M 306.5,628.5 C 308.191,629.864 309.858,631.197 311.5,632.5C 308.876,632.923 307.209,631.59 306.5,628.5 Z"/></g>
<g><path style="opacity:0.125" fill="#ece2f6" d="M 693.5,629.5 C 692.218,631.18 690.551,632.513 688.5,633.5C 688.5,632.833 688.167,632.5 687.5,632.5C 689.181,630.992 691.181,629.992 693.5,629.5 Z"/></g>
<g><path style="opacity:0.004" fill="#f7f3fb" d="M 685.5,633.5 C 685.842,632.662 686.508,632.328 687.5,632.5C 688.167,632.5 688.5,632.833 688.5,633.5C 687.779,635.382 686.779,635.715 685.5,634.5C 686.833,634.167 686.833,633.833 685.5,633.5 Z"/></g>
<g><path style="opacity:0.004" fill="#eee5f7" d="M 311.5,632.5 C 313.027,632.427 314.027,633.094 314.5,634.5C 313.577,635.303 312.577,635.47 311.5,635C 312.598,634.23 312.598,633.397 311.5,632.5 Z"/></g>
<g><path style="opacity:0.006" fill="#f2ecf9" d="M 314.5,634.5 C 318.431,635.389 322.098,636.722 325.5,638.5C 324.5,638.5 323.5,638.5 322.5,638.5C 319.308,638.908 316.641,637.574 314.5,634.5 Z"/></g>
<g><path style="opacity:0.008" fill="#eadff5" d="M 685.5,633.5 C 685.5,633.833 685.5,634.167 685.5,634.5C 683.184,635.806 680.85,637.139 678.5,638.5C 676.929,637.691 675.262,637.357 673.5,637.5C 677.216,635.595 681.216,634.261 685.5,633.5 Z"/></g>
<g><path style="opacity:0.004" fill="#fdfefe" d="M 322.5,638.5 C 322.103,639.525 321.437,639.692 320.5,639C 321.094,638.536 321.761,638.369 322.5,638.5 Z"/></g>
<g><path style="opacity:0.004" fill="#fdfefe" d="M 675.5,638.5 C 676.833,639.167 676.833,639.167 675.5,638.5 Z"/></g>
<g><path style="opacity:0.004" fill="#efe7f8" d="M 673.5,637.5 C 672.312,638.364 671.145,639.364 670,640.5C 555.981,640.661 441.814,640.494 327.5,640C 326.944,639.617 326.611,639.117 326.5,638.5C 442.195,638.827 557.862,638.494 673.5,637.5 Z"/></g>
</svg>
